<?xml version="1.0" encoding="UTF-8"?>
<svg width="15px" height="23px" viewBox="0 0 15 23" version="1.1" xmlns="http://www.w3.org/2000/svg" xmlns:xlink="http://www.w3.org/1999/xlink">
    <!-- Generator: Sketch 52.1 (67048) - http://www.bohemiancoding.com/sketch -->
    <title>Group 17</title>
    <desc>Created with Sketch.</desc>
    <g id="Dashboard_GlobalTimeline" stroke="none" stroke-width="1" fill="none" fill-rule="evenodd">
        <g id="00_Canvas_VP_Dropdown_v3.0" transform="translate(-30.000000, -7.000000)" fill="#FFFFFF" fill-rule="nonzero">
            <g id="Nav">
                <g id="Group-17" transform="translate(30.000000, 7.000000)">
                    <path d="M8.19539126,0.0333235401 L14.962037,6.77880052 C15.0096025,6.82621716 15.0129202,6.90671338 14.9694474,6.95859389 C14.9473427,6.9849735 14.9160876,7 14.8833224,7 L8.11667674,7 C8.05223796,7 8,6.94302308 8,6.87273849 L8,0.127261508 C8,0.056976918 8.05223796,0 8.11667674,0 C8.14580896,0 8.17388734,0.011886889 8.19539126,0.0333235401 Z" id="Rectangle"></path>
                    <path d="M7,0.127264627 L7,6.87273617 C7,6.94302204 6.94776084,7 6.88332057,7 L0.116679426,7 C0.0522391587,7 0,6.94302204 0,6.87273617 C0,6.83699814 0.0137769432,6.80290698 0.037962897,6.7787967 L6.80460405,0.0333251477 C6.85217047,-0.0140924645 6.92597326,-0.0104738966 6.9694472,0.0414074453 C6.98910146,0.0648626307 7,0.0954888853 7,0.127264627 Z" id="Rectangle-Copy"></path>
                    <path d="M7.0982485,8.1244294 L7.0982485,14.8510826 C7.0982485,14.9198026 7.0462043,14.9755112 6.98200454,14.9755112 L0.116243961,14.9755112 C0.0520441943,14.9755112 0,14.9198026 0,14.8510826 C0,14.8161721 0.0137009627,14.7828674 0.0377590551,14.7592967 L6.90351962,8.03264356 C6.95087714,7.98624557 7.02440686,7.98972649 7.06775288,8.04041841 C7.08736892,8.06335882 7.0982485,8.09333045 7.0982485,8.1244294 Z" id="Shape"></path>
                    <path d="M7.0982485,8.1244294 L7.0982485,14.8510826 C7.0982485,14.9198026 7.0462043,14.9755112 6.98200454,14.9755112 L0.116243961,14.9755112 C0.0520441943,14.9755112 0,14.9198026 0,14.8510826 C0,14.8161721 0.0137009627,14.7828674 0.0377590551,14.7592967 L6.90351962,8.03264356 C6.95087714,7.98624557 7.02440686,7.98972649 7.06775288,8.04041841 C7.08736892,8.06335882 7.0982485,8.09333045 7.0982485,8.1244294 Z" id="Shape" transform="translate(3.549124, 11.487756) scale(-1, -1) translate(-3.549124, -11.487756) "></path>
                    <path d="M0.116677477,16 L6.88332326,16 C6.94776204,16 7,16.0569769 7,16.1272615 L7,22.8727385 C7,22.943023 6.94776204,23 6.88332326,23 C6.85419104,23 6.82611266,22.988113 6.80460874,22.9666764 L0.0379629584,16.2211995 C-0.00960247334,16.1737828 -0.0129201841,16.0932866 0.030552644,16.0414061 C0.052657203,16.0150265 0.083912391,16 0.116677477,16 Z" id="Rectangle-Copy-3"></path>
                    <path d="M8.11667862,16 L14.8833214,16 C14.9477612,16 15,16.0569767 15,16.127261 C15,16.1629979 14.9862234,16.1970879 14.962038,16.2211977 L8.19539529,22.9666749 C8.14782955,23.0140919 8.07402723,23.010474 8.03055322,22.9585942 C8.01089871,22.9351395 8,22.9045136 8,22.8727382 L8,16.127261 C8,16.0569767 8.0522388,16 8.11667862,16 Z" id="Rectangle-Copy-4"></path>
                </g>
            </g>
        </g>
    </g>
</svg>